<svg width="89" height="35" viewBox="0 0 89 35" fill="none" xmlns="http://www.w3.org/2000/svg">
<g style="mix-blend-mode:luminosity" clip-path="url(#clip0)">
<path d="M17.1479 0.431098C17.1479 0.598827 16.9999 0.648159 16.2599 0.736957C15.9639 0.776422 15.6778 0.845487 15.6186 0.884953C15.5693 0.924419 15.3917 0.983617 15.2239 1.02308C14.9181 1.09215 14.7898 1.14148 13.6453 1.694C12.2048 2.37478 9.93554 3.91394 8.67264 5.06831C7.40974 6.21281 5.45619 8.24529 5.00234 8.89647C4.87407 9.07407 4.69648 9.31086 4.59781 9.40952C4.49915 9.51805 4.30182 9.78445 4.15383 10.0015C4.00583 10.2284 3.85783 10.4258 3.82823 10.4554C3.78877 10.485 3.66051 10.6823 3.53224 10.8994C3.40398 11.1164 3.26585 11.3137 3.23625 11.3433C3.11785 11.4321 2.68373 12.2313 2.10161 13.4153C1.79575 14.0369 1.50963 14.6289 1.45043 14.7176C1.4011 14.8163 1.36163 14.9446 1.36163 15.0136C1.36163 15.0827 1.30243 15.2603 1.2235 15.4083C1.14457 15.5563 1.05577 15.8128 1.01631 15.9904C0.976843 16.1779 0.907778 16.3851 0.858446 16.4739C0.493389 17.1546 6.88732e-05 21.5057 0.256595 21.8313C0.305928 21.9004 0.384859 22.2062 0.424324 22.522C0.453924 22.8377 0.552588 23.2126 0.631519 23.3606C0.700584 23.5086 0.769649 23.6862 0.769649 23.7651C0.769649 24.0217 1.67736 25.255 2.22988 25.7483C2.83173 26.2811 3.96636 26.8928 4.51888 26.9915C4.70635 27.0309 4.91354 27.0901 4.96287 27.1395C5.14047 27.2677 7.39001 27.3368 8.31745 27.2381C9.42249 27.1098 10.7643 26.8928 10.9024 26.804C10.9518 26.7744 11.2379 26.6955 11.5339 26.6461C11.8299 26.5869 12.3528 26.4685 12.708 26.3797C13.0632 26.3008 13.596 26.1627 13.9117 26.0936C14.2176 26.0245 14.5037 25.9456 14.5629 25.916C14.6122 25.8766 14.8885 25.8075 15.1845 25.7582C15.4805 25.699 16.0527 25.5806 16.4572 25.5016C16.8618 25.4128 17.4636 25.2944 17.7892 25.2451C18.1148 25.1958 18.5785 25.107 18.8252 25.0478C19.4665 24.8899 22.8112 24.811 23.4131 24.9392C23.6893 24.9984 24.1136 25.0971 24.3701 25.1464C24.6266 25.2056 24.9127 25.2846 25.0114 25.3438C25.1101 25.3931 25.4258 25.5411 25.7119 25.6595C25.9882 25.7878 26.225 25.9259 26.225 25.9653C26.225 26.0147 26.2743 26.0443 26.3335 26.0443C26.5308 26.0443 27.3103 26.7349 27.6753 27.2381L28.0305 27.7117L28.6324 27.169C29.7868 26.1232 30.8721 25.847 33.1117 26.0443C33.7826 26.0936 34.4141 26.1923 34.5128 26.2416C34.6114 26.3008 34.7989 26.3403 34.9272 26.3403C35.0554 26.3403 35.2823 26.4093 35.4402 26.4883C35.5882 26.5672 35.7954 26.6363 35.8842 26.6363C35.973 26.6363 36.3578 26.7941 36.7228 26.9816C37.0978 27.169 37.4431 27.3269 37.4826 27.3269C37.7391 27.3269 37.4628 27.0605 36.5156 26.3403C35.9237 25.9061 35.4106 25.5214 35.3514 25.472C35.3021 25.4326 35.0751 25.2846 34.8581 25.1563C34.641 25.028 34.4437 24.8899 34.4141 24.8504C34.3549 24.7715 32.6283 23.8737 32.5296 23.8737C32.4901 23.8737 32.3323 23.8243 32.1744 23.7553C31.7206 23.5678 31.0595 23.3804 30.2702 23.2126C29.323 23.0153 25.9981 22.9265 25.2383 23.0844C24.9423 23.1436 24.3405 23.2324 23.9064 23.2817C22.8013 23.41 21.0155 23.7553 19.5158 24.1302C19.1606 24.2091 18.6278 24.3374 18.3319 24.3966C18.0359 24.4657 17.7497 24.5446 17.6905 24.5742C17.6412 24.6137 17.3945 24.6728 17.1479 24.7024C16.9012 24.7419 16.6151 24.811 16.5066 24.8603C16.398 24.9096 16.0922 24.9984 15.8159 25.0478C15.0562 25.1958 14.3656 25.3536 14.04 25.4523C13.5861 25.5904 11.9779 25.847 10.3894 26.0344C9.68888 26.1133 9.26463 26.1133 8.37665 25.9949C7.75506 25.9061 7.20255 25.8075 7.14335 25.7582C7.08415 25.7187 6.90655 25.6496 6.74869 25.6102C6.14684 25.4622 5.0122 24.5742 4.68661 23.9921C4.46955 23.6171 4.15383 22.9364 4.02556 22.591C3.85783 22.1175 3.78877 20.0948 3.90717 19.4831C4.17356 18.24 4.23276 17.9933 4.32156 17.717C4.37089 17.5493 4.50902 17.1053 4.62741 16.7403C4.74581 16.3752 4.88394 16.0496 4.92341 16.02C4.97274 15.9904 5.0122 15.9016 5.0122 15.8128C5.0122 15.724 5.17007 15.3294 5.35753 14.9347C5.54499 14.5401 5.70285 14.175 5.70285 14.1257C5.70285 14.0665 5.73245 14.0073 5.78178 13.9875C5.82125 13.9678 5.95938 13.731 6.08764 13.4646C6.38363 12.8529 7.20255 11.5111 7.78466 10.6527C8.38651 9.77458 8.70224 9.33059 8.76144 9.27139C8.79104 9.2418 9.05743 8.90634 9.35342 8.53141C10.1131 7.55464 10.3993 7.22905 12.0174 5.62083C13.5466 4.08167 13.9413 3.73634 14.7602 3.17396C16.3388 2.08865 17.2465 1.694 18.3417 1.6052C18.8745 1.56573 18.914 1.5756 19.2593 1.92093C19.4764 2.13799 19.6145 2.36491 19.6145 2.51291C19.6145 2.82863 19.2889 3.15423 18.9732 3.15423C18.6969 3.15423 18.0753 3.51928 17.8287 3.81527C17.5327 4.18033 17.3452 4.66378 17.3452 5.08804C17.3452 5.46296 17.3847 5.53203 17.6807 5.71949L18.026 5.92668L18.4108 5.72936C19.6046 5.11764 20.5419 3.18382 20.2163 2.00972C20.0683 1.44734 19.4961 0.806022 19.0718 0.72709C18.8646 0.687625 18.7068 0.598827 18.6772 0.48043C18.618 0.322568 18.5094 0.292969 17.878 0.292969C17.3057 0.292969 17.1479 0.322568 17.1479 0.431098ZM59.1788 0.746823C58.9913 0.776422 58.6953 0.855354 58.5177 0.934285C58.35 1.01322 58.1428 1.08228 58.054 1.08228C57.9652 1.08228 57.8172 1.12175 57.7186 1.18094C57.6298 1.23028 57.3338 1.36841 57.0575 1.47694C55.6762 2.05905 53.4168 3.42062 52.1638 4.43686C50.8811 5.4827 50.447 5.86749 49.411 6.90346C47.8817 8.43275 47.1516 9.28126 46.0269 10.8007C45.5039 11.5012 45.0402 12.1228 44.9909 12.182C44.9514 12.2313 44.8034 12.4582 44.6752 12.6753C44.5469 12.8924 44.4088 13.0897 44.3792 13.1193C44.2312 13.2377 43.0965 15.2406 42.623 16.2272C42.3368 16.8192 42.0507 17.3914 42.0014 17.4802C41.952 17.5789 41.9126 17.7072 41.9126 17.7664C41.9126 17.8256 41.8534 18.013 41.7744 18.1808C41.1726 19.5423 40.8865 21.2196 40.9555 22.9364C41.0147 24.1105 41.0641 24.3473 41.5376 25.3339C41.7744 25.8371 42.4158 26.5376 42.8499 26.7645C43.7477 27.2381 43.9056 27.2776 45.0994 27.2677C45.7309 27.2578 46.313 27.2085 46.382 27.1493C46.4412 27.1 46.6583 27.0211 46.8458 26.9816C47.1418 26.9125 48.0396 26.5179 48.8191 26.0837C49.4702 25.7286 50.9305 24.4558 51.6803 23.5777C51.9763 23.2225 52.2723 22.887 52.3414 22.8081C52.8051 22.3148 53.9003 20.4402 54.3442 19.3845C54.4626 19.1082 54.5909 18.8023 54.6402 18.6938C54.6896 18.5853 54.7586 18.3386 54.7981 18.1512C54.8277 17.9637 54.9066 17.7466 54.9658 17.6776C55.025 17.6085 55.0645 17.0067 55.0744 16.2963C55.0842 14.9742 55.0349 14.8064 54.5218 14.2835C54.2258 13.9777 53.5451 13.8691 52.7952 14.0073C52.4302 14.0665 52.0848 14.1553 52.0256 14.1947C51.9763 14.2441 51.8184 14.3131 51.6902 14.3526C51.2758 14.4809 50.1707 15.2899 49.5492 15.9213C48.8783 16.6021 48.5625 17.0659 48.0593 18.1018C47.8719 18.4767 47.6745 18.8714 47.6252 18.9602C47.5759 19.0589 47.5364 19.2069 47.5364 19.2957C47.5364 19.3746 47.4772 19.5423 47.418 19.6607C47.2207 19.9962 46.8063 21.6932 46.8852 21.782C46.9148 21.8017 47.2996 21.5057 47.7535 21.1209C48.2073 20.7362 48.6217 20.4204 48.6908 20.4204C48.75 20.4204 48.8191 20.381 48.8388 20.3415C48.8783 20.2428 49.8057 19.6805 50.0622 19.5917C50.1905 19.5522 50.3089 19.3351 50.4371 18.9207C51.0686 16.7995 52.44 15.0926 53.5056 15.0926C54.4626 15.0926 54.729 15.8326 54.3541 17.5098C54.2949 17.7762 54.1962 18.0426 54.1469 18.092C54.0877 18.1512 54.0482 18.2794 54.0482 18.3781C54.0482 18.4767 53.989 18.6839 53.9101 18.8221C53.8312 18.9701 53.6635 19.3055 53.5352 19.5818C53.3083 20.085 52.7755 21.0223 52.667 21.1111C52.6374 21.1407 52.3907 21.4465 52.1243 21.8017C51.039 23.2324 49.4406 24.6827 48.4047 25.1464C47.7929 25.4227 47.0135 25.5016 46.3031 25.3536C45.8197 25.255 45.6519 25.1563 45.277 24.7715C44.6653 24.1499 44.4482 23.4297 44.5074 22.2852C44.5469 21.3775 44.7442 20.233 44.8824 20.085C44.9317 20.0258 44.9712 19.8778 44.9712 19.7396C44.9712 19.5917 45.0402 19.3549 45.1192 19.197C45.1981 19.049 45.2671 18.8418 45.2671 18.753C45.2671 18.6642 45.3362 18.4669 45.4151 18.309C45.4941 18.161 45.5631 17.9834 45.5631 17.9341C45.5631 17.5394 47.201 14.4217 48.2468 12.8332C48.3455 12.695 48.4737 12.478 48.5329 12.3497C48.602 12.2313 48.6809 12.1327 48.7204 12.1327C48.7599 12.1327 48.8191 12.0537 48.8487 11.9551C48.9078 11.7873 49.5294 10.9191 50.4569 9.72525C52.4795 7.13039 55.3013 4.44672 57.6002 2.93716C58.3204 2.46358 59.6622 1.77293 59.8694 1.77293C59.9582 1.77293 60.0668 1.73346 60.126 1.67427C60.1753 1.62493 60.491 1.55587 60.8067 1.52627C61.8427 1.42761 61.9118 1.73346 60.9942 2.34518C60.7278 2.52278 60.4219 2.7497 60.3134 2.8385C60.2049 2.9273 59.83 3.23316 59.4748 3.51928C58.1724 4.54539 56.9588 5.99575 56.2682 7.33758C55.6663 8.51168 55.5183 8.99514 55.4986 9.74498C55.469 10.8796 55.8242 11.2644 56.8898 11.2644C57.4127 11.2644 57.6396 11.2151 58.1823 10.9388C59.0308 10.5047 60.5305 9.0346 61.2705 7.8901C62.0302 6.73573 62.6715 5.44323 62.7899 4.83151C62.8195 4.64405 62.8885 4.43686 62.9379 4.37766C62.9872 4.32833 63.0464 3.82514 63.076 3.26276C63.0957 2.71024 63.1451 2.21692 63.1747 2.16759C63.2043 2.11825 63.4707 2.02946 63.7568 1.96039C64.2008 1.86173 64.4178 1.87159 65.0888 2.00972C65.5328 2.09852 65.9669 2.20705 66.0655 2.25638C66.1543 2.29585 66.3911 2.40438 66.5786 2.48331C66.766 2.57211 67.0324 2.68064 67.1706 2.73984C67.4468 2.8681 68.2263 3.29236 68.4532 3.45022C68.5321 3.49955 68.9564 3.77581 69.3905 4.06193C69.8246 4.33819 70.535 4.80191 70.9691 5.07817C71.9064 5.68002 72.6662 6.11415 72.8043 6.11415C72.8931 6.11415 74.6888 4.29873 74.7381 4.1606C74.7578 4.12113 74.5506 3.99287 74.2941 3.86461C74.0376 3.74621 73.7613 3.60808 73.6824 3.55875C72.0051 2.52278 70.2094 1.55587 69.2918 1.18094C68.2065 0.746823 68.1473 0.736957 66.2135 0.736957C64.8322 0.736957 64.2896 0.766556 64.1909 0.855354C64.1317 0.924418 63.9936 0.983617 63.8949 0.983617C63.7963 0.983617 63.4707 1.06255 63.1845 1.17108L62.6616 1.35854L62.1782 1.05268C61.7243 0.766556 61.6355 0.746823 60.6094 0.72709C60.0174 0.717224 59.3662 0.72709 59.1788 0.746823ZM62.3952 2.71024C62.4742 3.0161 62.267 4.54539 62.1387 4.67365C62.0795 4.73285 62.04 4.85125 62.04 4.94991C62.04 5.40377 60.9449 7.39678 60.2444 8.21569C59.4254 9.1826 58.2513 10.258 58.0047 10.258C57.9455 10.258 57.8961 10.2975 57.8961 10.3468C57.8961 10.4258 57.0378 10.7514 56.8207 10.7514C56.7615 10.7514 56.5642 10.5935 56.3669 10.406C55.8735 9.90284 55.9031 9.51805 56.5839 8.13676C56.9983 7.26852 57.0378 7.21918 57.7087 6.31147C58.5572 5.17684 59.8793 3.88434 60.9251 3.17396C62.0499 2.40438 62.2966 2.32545 62.3952 2.71024Z" fill="#CF1A1A"/>
<path d="M80.7862 0.973717C80.2633 1.13158 79.3457 1.55583 79.0892 1.76303C79.0201 1.82223 78.4972 2.20702 77.925 2.63127C76.6325 3.58831 73.2878 6.89356 72.0545 8.42285C71.8473 8.68925 71.5612 9.0247 71.4329 9.16283C70.91 9.72522 69.0452 12.3102 68.5026 13.2377C68.4532 13.3363 68.1671 13.7902 67.8909 14.2539C67.6047 14.7275 67.3679 15.1419 67.3679 15.1912C67.3679 15.2405 67.3087 15.3392 67.2495 15.4083C67.1805 15.4872 67.0423 15.6944 66.9338 15.8819C66.8351 16.0693 66.5984 16.5133 66.401 16.8685C66.2136 17.2237 65.8485 17.9045 65.6018 18.3879C65.3355 18.901 65.0691 19.2956 64.9507 19.3351C64.4179 19.5324 64.0232 19.6311 63.7766 19.6311C63.5102 19.6311 63.5003 19.6212 63.5694 19.2562C63.6088 19.0588 63.6976 18.7826 63.7667 18.6444C64.0035 18.2202 64.191 17.717 64.26 17.3618C64.2995 17.1744 64.3784 16.9672 64.4277 16.8981C64.4771 16.829 64.5264 16.3357 64.5363 15.7931C64.5461 14.8755 64.5264 14.7966 64.2797 14.4611C64.0824 14.2144 63.8654 14.0664 63.4806 13.948C62.9774 13.7902 62.9083 13.7902 62.3657 13.948C60.9942 14.3526 59.8991 15.0728 58.3994 16.5626C57.1167 17.8453 56.7221 18.2893 56.2189 19.0391C56.14 19.1575 56.0117 19.3154 55.9525 19.3943C55.8834 19.4634 55.8242 19.5423 55.8242 19.5719C55.8242 19.6015 55.696 19.8087 55.5381 20.0455C55.1336 20.6375 54.364 22.1569 54.295 22.5022C54.2555 22.6601 54.1864 22.8081 54.1371 22.8377C54.0878 22.8771 54.0483 22.9857 54.0483 23.0843C54.0483 23.1929 53.9792 23.479 53.8904 23.7355C53.7918 24.0216 53.7326 24.5544 53.7326 25.1464C53.7227 26.212 53.9003 26.7152 54.4133 27.0802C54.7883 27.3466 56.1498 27.3565 56.5149 27.1C56.6432 27.0112 56.8306 26.9322 56.9293 26.9322C57.0279 26.9322 57.1069 26.9026 57.1069 26.8533C57.1069 26.8138 57.3141 26.6658 57.5805 26.5178C58.054 26.2416 58.1527 26.1626 59.3367 25.1267C59.9583 24.584 60.2345 24.2782 61.1028 23.2323C61.231 23.0646 61.3889 22.887 61.4481 22.8179C61.4974 22.7489 61.5468 22.6699 61.5468 22.6403C61.5468 22.5614 61.9809 21.9596 62.0697 21.9201C62.1091 21.9004 62.1387 21.8214 62.1387 21.7524C62.1387 21.6734 62.1979 21.555 62.267 21.486C62.3361 21.4169 62.5038 21.1505 62.6321 20.894C62.9083 20.3316 63.2832 20.1244 64.043 20.1244C64.6645 20.1244 64.7928 20.2625 64.556 20.7164C64.4771 20.8743 64.408 21.042 64.408 21.1012C64.408 21.1505 64.3587 21.3182 64.2896 21.4761C63.9739 22.226 63.6286 23.627 63.5102 24.5643C63.3622 25.8469 63.5496 26.5672 64.1515 27.0408C64.6843 27.4551 66.0162 27.317 66.6378 26.7842C66.7069 26.725 66.9042 26.577 67.0917 26.4389C67.2693 26.3008 67.7527 25.8667 68.1572 25.4819C68.5618 25.0872 68.9268 24.7616 68.9663 24.7616C69.0551 24.7616 69.0551 24.7616 69.0847 25.6595C69.1143 26.3994 69.3609 26.9026 69.7951 27.1394C70.2193 27.3565 71.1862 27.317 71.7387 27.0408C72.1827 26.8237 73.5147 25.8568 73.7318 25.5904C73.791 25.5312 73.939 25.4424 74.0672 25.4029C74.2843 25.3339 74.2941 25.3536 74.2349 25.6595C74.1659 26.0541 74.3928 26.8632 74.6296 27.1098C74.7677 27.2381 74.9749 27.2776 75.5472 27.2677C76.2477 27.2677 76.3365 27.2381 76.9877 26.8434C77.9842 26.2317 78.7735 25.5312 79.9476 24.2584C80.727 23.4099 81.0033 23.0843 81.1908 22.7883C81.2796 22.6502 81.4572 22.4331 81.5755 22.295C81.6939 22.1569 81.9406 21.8214 82.1281 21.555C82.3057 21.2788 82.5326 20.9631 82.6214 20.8348C82.7792 20.6177 82.7792 20.6177 82.4241 20.6177C82.0886 20.6177 82.0294 20.6769 81.3881 21.5254C80.5494 22.6601 80.1844 23.0942 79.5529 23.7256C78.4084 24.8701 77.7573 25.2056 77.4218 24.8011C77.2245 24.5643 77.4119 24.1598 78.9412 21.6142C79.7009 20.3415 80.4014 19.1674 80.4804 19.0095C80.5692 18.8516 80.6876 18.6543 80.7369 18.5655C81.0822 17.9933 81.3486 17.5789 81.4571 17.4111C81.5163 17.3026 81.6249 17.1053 81.6841 16.9672C81.7334 16.8389 81.8123 16.7008 81.8518 16.6712C81.8913 16.6416 82.0294 16.4146 82.1675 16.1482C82.2958 15.8917 82.4438 15.6845 82.4833 15.6845C82.5326 15.6845 82.5622 15.6352 82.5622 15.576C82.5622 15.5069 82.7003 15.2405 82.8582 14.9741C83.0259 14.7176 83.1542 14.4414 83.1542 14.3723C83.1542 14.2835 82.8582 14.2638 81.9603 14.2736C80.8257 14.3032 80.7468 14.3131 80.5297 14.5499C80.4014 14.688 80.2633 14.7965 80.2239 14.7965C80.1844 14.7965 79.9969 14.6387 79.8095 14.4512C79.3655 13.9875 78.882 13.8691 78.0927 14.0072C77.7573 14.0763 77.4415 14.1552 77.3823 14.2046C77.333 14.244 77.1751 14.3131 77.0469 14.3526C76.9087 14.392 76.7607 14.4611 76.7015 14.5104C76.6423 14.5598 76.3069 14.8064 75.9714 15.0531C75.6261 15.2997 75.1427 15.6845 74.8861 15.9115C74.3928 16.3752 72.6859 18.3189 72.4195 18.7234C72.3307 18.8714 72.2123 19.0391 72.1531 19.0983C72.1038 19.1575 71.9953 19.2956 71.9262 19.3943C71.8571 19.5028 71.65 19.7988 71.4526 20.0751C71.2553 20.3415 70.8902 20.8743 70.6436 21.259C70.3871 21.634 70.1601 21.9694 70.1305 21.999C70.0911 22.0286 69.9628 22.226 69.8345 22.443C69.7063 22.6601 69.5681 22.8574 69.5385 22.887C69.5089 22.9166 69.2721 23.2027 69.0255 23.5283C67.9007 24.9984 67.0522 25.4227 66.5786 24.7616C66.4109 24.5248 66.3714 24.3571 66.4109 24.0414C66.48 23.3803 66.6871 22.4529 66.7858 22.3542C66.8351 22.295 66.8746 22.1668 66.8746 22.0681C66.8746 21.9694 66.9338 21.7425 67.0127 21.5748C67.0818 21.3972 67.2199 21.0617 67.3186 20.8151C67.6541 19.9665 68.2559 18.7431 68.3348 18.7431C68.4434 18.7431 70.8014 17.0264 71.2652 16.6021C71.3737 16.5034 71.7289 16.2074 72.0545 15.9312C72.8142 15.2997 76.4648 11.6788 77.0173 11.0177C77.4415 10.4948 77.7671 10.11 78.1519 9.66602C78.2703 9.52789 78.586 9.1431 78.8426 8.79778L79.3161 8.18606H78.9708C78.6748 8.18606 78.5762 8.25512 78.1026 8.84711C77.8164 9.22203 77.5402 9.56736 77.481 9.62655C77.4317 9.68575 77.0765 10.0903 76.7015 10.5145C75.8333 11.5012 73.0806 14.2539 72.1038 15.1123C71.6993 15.4773 71.206 15.9016 71.0185 16.0693C70.831 16.237 70.6436 16.3752 70.6041 16.3752C70.5646 16.3752 70.4758 16.4344 70.3969 16.5133C70.1207 16.7896 69.5089 17.1645 69.3412 17.1645C69.2031 17.1645 69.1735 17.1053 69.2129 16.9376C69.2425 16.8192 69.3215 16.6514 69.3807 16.5725C69.4497 16.4936 69.5977 16.2272 69.7161 15.9805C69.8444 15.7339 69.9825 15.4675 70.0319 15.3885C70.0812 15.3096 70.4857 14.619 70.9297 13.8592C71.3836 13.0995 71.7782 12.4582 71.8275 12.4483C71.867 12.4286 71.9065 12.3793 71.9065 12.3299C71.9065 12.2609 72.2123 11.7676 72.7155 11.0079C72.8635 10.7908 73.5838 9.78442 74.1955 8.92604C75.932 6.48904 78.9314 3.30219 80.5198 2.18728C81.1118 1.7729 81.6249 1.61503 81.8321 1.78276C82.0491 1.96036 81.911 2.66087 81.5065 3.52912C81.319 3.93364 81.1908 4.27896 81.2204 4.30856C81.2894 4.37763 81.9702 4.14083 81.9702 4.04217C81.9702 3.99284 82.0195 3.83497 82.0886 3.67711C82.4438 2.80887 82.5523 2.35501 82.5622 1.79263V1.17104L82.1083 0.983583C81.5854 0.756656 81.5163 0.756656 80.7862 0.973717ZM63.4904 15.0827C63.8358 15.3688 64.0528 16.1384 63.9246 16.5824C63.8654 16.7797 63.816 17.0165 63.816 17.1053C63.816 17.4506 62.9478 19.2266 62.7011 19.3746C62.3558 19.5916 61.1817 18.7234 60.8561 17.9933C60.4812 17.1941 60.6884 16.464 61.5172 15.6648C62.267 14.9347 63.0464 14.7078 63.4904 15.0827ZM79.474 15.1517C79.9279 15.2701 79.8489 15.6253 79.0793 16.8981C78.6847 17.5591 78.3295 18.1709 78.29 18.2498C78.2506 18.3287 78.142 18.5162 78.0434 18.6642C77.9546 18.8122 77.5501 19.4732 77.1455 20.1441C76.741 20.8151 76.3858 21.3774 76.3464 21.407C76.3168 21.4366 76.1786 21.634 76.0504 21.851C75.9221 22.0681 75.7642 22.295 75.705 22.3641C75.5274 22.5811 75.409 22.7291 75.1427 23.1337C74.4915 24.1006 73.495 24.9589 73.0115 24.9589C72.607 24.9589 72.2617 24.5446 72.3307 24.1203C72.4689 23.2718 72.8142 22.4726 73.6824 20.9631C75.3498 18.0722 78.0828 15.0827 79.0596 15.0925C79.1681 15.0925 79.3556 15.1221 79.474 15.1517ZM60.5108 18.822C60.8857 19.2266 61.3297 19.5818 61.6356 19.7298C62.1289 19.9665 62.3953 20.3612 62.1683 20.5092C62.1091 20.5388 61.9611 20.7559 61.8329 20.9828C60.6489 23.0251 58.6658 24.9589 57.7482 24.9589C57.6199 24.9589 57.3535 24.8011 57.1463 24.6136L56.7813 24.2683L56.8306 23.5678C56.8602 23.183 56.9391 22.8179 56.9983 22.7587C57.0575 22.6995 57.1069 22.5811 57.1069 22.4923C57.1069 22.2654 57.9949 20.5388 58.4882 19.8087C58.725 19.4634 59.0703 18.9503 59.2577 18.6642C59.4452 18.3879 59.6623 18.1511 59.7511 18.1511C59.83 18.1511 60.1655 18.457 60.5108 18.822Z" fill="#CF1A1A"/>
<path d="M87.4459 1.85183C86.5875 2.55234 85.6108 3.24299 85.226 3.42059C85.1471 3.45019 85.0583 3.50938 85.0287 3.54885C84.93 3.66725 82.8482 4.63415 82.6805 4.63415C82.6311 4.63415 82.4535 4.70322 82.3055 4.78215C82.1477 4.86108 81.9109 4.93015 81.7629 4.93015C81.6247 4.93015 81.4669 4.97948 81.4176 5.02881C81.2992 5.14721 79.8488 5.3248 78.951 5.3248C78.3491 5.3248 78.3491 5.3248 77.8656 5.84772C76.9678 6.81463 76.5435 7.31782 76.5435 7.39675C76.5435 7.65327 79.4147 7.54474 80.4901 7.23888C81.605 6.92316 83.45 6.05492 84.19 5.5024C85.2951 4.68349 86.558 3.49952 87.2979 2.60167C87.6827 2.13795 88.2056 1.36837 88.1662 1.32891C88.1464 1.30918 87.8209 1.54597 87.4459 1.85183ZM18.0851 7.26848C17.9272 7.28822 17.7102 7.37701 17.6016 7.45595C17.4931 7.53488 17.3451 7.59408 17.276 7.59408C17.1577 7.59408 16.1809 8.14659 16.0625 8.28472C16.0329 8.31432 15.8257 8.46232 15.5988 8.61031C15.1844 8.89644 13.7833 10.2383 13.0532 11.0473C12.0567 12.1524 11.001 13.7408 10.409 15.0037C9.70851 16.5133 9.59998 16.9474 9.59998 18.2991C9.59998 19.5226 9.67892 19.8186 10.1426 20.2033C10.4386 20.45 11.0799 20.7164 11.3661 20.7164C12.0765 20.7065 13.4577 20.0356 14.4345 19.2364C15.1449 18.6543 17.1281 16.5626 17.4931 16.0299C17.7102 15.7043 17.9174 15.4181 17.9667 15.4083C18.0062 15.3885 18.0358 15.3392 18.0358 15.2899C18.0358 15.2109 18.6376 14.2539 18.8251 14.0368C18.8744 13.9678 18.9237 13.8888 18.9237 13.8592C18.9237 13.8198 19.0421 13.6422 19.1803 13.4646C19.3776 13.1982 19.5256 13.1193 19.8906 13.0601C20.1472 13.0206 20.4333 12.9515 20.532 12.9022C20.6602 12.843 20.7194 12.8529 20.7589 12.9713C20.8181 13.1291 20.6701 13.4942 20.2458 14.2046C20.1373 14.392 19.9498 14.7965 19.8216 15.0925C19.7032 15.3885 19.5651 15.724 19.5157 15.8325C19.3085 16.2666 19.1901 16.9672 19.1507 17.8847C19.1112 18.7036 19.1408 18.9207 19.2987 19.266C19.5749 19.858 20.0978 20.3612 20.5418 20.4796C20.6898 20.5092 20.828 20.5783 20.8576 20.6276C20.9464 20.7855 22.1106 20.7164 22.6828 20.5289C23.2058 20.3513 24.1628 19.8975 24.3897 19.7199C24.4489 19.6804 24.883 19.345 25.3665 18.9898C25.8401 18.6346 26.4222 18.161 26.659 17.9242C27.1819 17.421 27.4779 17.2336 27.5568 17.3618C27.5864 17.4111 27.5568 17.5591 27.4976 17.6775C27.4187 17.8157 27.3694 18.3287 27.3694 18.9503C27.3595 20.1836 27.4286 20.3119 28.2179 20.5783C28.6323 20.7164 28.7704 20.7164 29.1651 20.6177C30.1418 20.3513 30.872 19.9271 31.7205 19.1279C31.9474 18.9207 32.1743 18.7431 32.2237 18.7431C32.342 18.7431 32.4407 19.0884 32.4407 19.562C32.4407 20.0652 32.6676 20.3809 33.1708 20.5684C33.5655 20.7164 33.6346 20.7164 34.0785 20.5684C34.6015 20.4007 35.1836 20.1441 35.3414 20.0159C35.4006 19.9665 35.7164 19.7298 36.042 19.4732C36.9102 18.8122 38.5382 17.0954 39.6531 15.6845C40.1957 15.0037 40.6792 14.4019 40.7285 14.3328C40.8864 14.1454 40.8469 14.1059 40.5016 14.1059C40.1957 14.1059 40.0872 14.2046 39.3669 15.0629C38.3902 16.2568 36.851 17.7663 36.3971 17.9834C35.5486 18.3978 35.2132 17.8946 35.746 17.0165C35.8841 16.7994 36.042 16.5133 36.1012 16.3752C36.1505 16.2469 36.2393 16.1088 36.2787 16.0792C36.3182 16.0496 36.4662 15.8424 36.5945 15.6155C36.7227 15.3984 37.0582 14.836 37.3246 14.392C37.6008 13.9382 37.8672 13.4942 37.9166 13.3955C37.9758 13.2969 38.7749 11.955 39.7123 10.4159C40.6397 8.86684 41.3797 7.58421 41.3402 7.55461C41.3106 7.52501 40.768 7.49541 40.1365 7.49541C39.2387 7.49541 38.9525 7.52501 38.8539 7.64341C38.6269 7.91967 38.4 7.9098 38.0744 7.60394C37.6008 7.15995 36.7227 7.09089 35.9433 7.44608C35.7854 7.52501 35.5782 7.60394 35.4993 7.63354C34.7692 7.9098 32.6775 9.72522 31.681 10.9487C31.533 11.1361 31.3061 11.4025 31.1778 11.5406C31.0496 11.6788 30.5365 12.3201 30.0432 12.9713C28.6421 14.8261 27.9416 15.6549 26.8366 16.7797C24.7055 18.9404 23.3538 19.4239 22.446 18.3583C22.2191 18.0919 22.1797 17.9439 22.1797 17.4703C22.1797 16.9573 22.4164 15.9805 22.6631 15.4379C22.7223 15.3293 22.8703 14.9939 23.0084 14.6979C23.2847 14.1059 23.6793 13.3659 23.8767 13.0897C23.9457 12.991 24.0937 12.7641 24.2023 12.5766C24.518 12.0438 24.962 11.4222 25.3369 11.0079C26.4222 9.79428 27.7739 8.58072 28.0502 8.58072C28.1192 8.58072 28.1982 8.52152 28.2278 8.45245C28.2475 8.38339 28.4547 8.33406 28.7605 8.33406C29.1749 8.33406 29.2933 8.37352 29.4709 8.58072C29.8656 9.06417 29.6584 9.48843 28.9579 9.60682C28.0502 9.77455 27.2411 11.2545 27.764 11.7774C28.1686 12.182 28.9776 11.8268 29.5104 11.0177C30.053 10.1791 30.1813 9.85348 30.2405 9.10364C30.3096 8.30446 30.1517 7.92953 29.5597 7.49541C29.2736 7.27835 29.1355 7.25862 28.3462 7.25862C27.7147 7.26848 27.3694 7.31782 27.1622 7.42635C27.0043 7.51514 26.8366 7.59408 26.7971 7.59408C26.7182 7.59408 25.7118 8.18606 25.6329 8.28472C25.6033 8.31432 25.3369 8.53138 25.0409 8.76818C24.7449 8.9951 24.1036 9.54762 23.6201 9.99161C22.377 11.1361 22.1402 11.3433 22.0613 11.3433C22.0218 11.3433 21.933 11.4124 21.8541 11.4814C21.6173 11.7182 20.4333 12.3299 20.2064 12.3299C19.9696 12.3299 19.8314 12.0734 19.9992 11.9057C20.0584 11.8465 20.1077 11.738 20.1077 11.659C20.1077 11.5801 20.1669 11.3828 20.2458 11.215C20.7096 10.1297 20.828 8.72871 20.5024 8.0874C20.2064 7.50528 19.8117 7.27835 19.0323 7.24875C18.6771 7.22902 18.2528 7.23888 18.0851 7.26848ZM19.4664 8.36366C19.7821 8.59058 19.9498 9.04444 19.94 9.64629C19.94 9.99161 19.8808 10.3271 19.8216 10.3863C19.7624 10.4455 19.7131 10.5737 19.7131 10.6823C19.7131 10.8599 19.4269 11.5702 19.1704 12.034C18.7955 12.7049 17.3747 12.1326 16.7827 11.0769C16.6347 10.8105 16.615 10.1988 16.7531 10.11C16.8123 10.0804 16.8518 9.96201 16.8518 9.86335C16.8518 9.62655 17.947 8.51165 18.3318 8.35379C18.5488 8.27486 19.348 8.27486 19.4664 8.36366ZM37.8672 8.48205C38.1534 8.76818 38.1632 8.74844 37.4035 10.0113C37.3344 10.1199 37.2358 10.3271 37.1667 10.4751C37.1075 10.6329 37.0286 10.7513 36.9793 10.7513C36.9398 10.7513 36.8806 10.8303 36.8411 10.9191C36.8115 11.0177 36.6931 11.2249 36.5846 11.3926C36.4761 11.5505 36.3379 11.807 36.2787 11.955C36.2195 12.1129 36.1307 12.2313 36.0814 12.2313C36.0321 12.2313 35.9926 12.2905 35.9926 12.3595C35.9926 12.4385 35.8644 12.6851 35.6966 12.9022C35.5388 13.1291 35.4006 13.3561 35.4006 13.4054C35.4006 13.4547 35.3414 13.5632 35.2724 13.6323C35.2033 13.7014 34.9369 14.1158 34.6705 14.54C34.414 14.9741 34.0489 15.5267 33.8615 15.7733C33.674 16.02 33.4274 16.3554 33.309 16.5232C33.1906 16.681 32.7663 17.1448 32.3716 17.5295C31.7303 18.1709 31.6021 18.2498 31.2765 18.2498C31.0792 18.2498 30.8621 18.2103 30.8029 18.1709C30.576 18.0229 30.4477 17.6381 30.5168 17.2928C30.5858 16.9376 30.6056 16.8685 30.8917 16.2962C30.9805 16.1088 31.0594 15.9213 31.0594 15.8621C31.0594 15.8029 31.2567 15.428 31.5034 15.0235C31.7501 14.6288 31.9474 14.2736 31.9474 14.2539C31.9474 14.175 32.5788 13.2673 33.3188 12.2806C35.7953 8.95564 37.1865 7.80127 37.8672 8.48205ZM16.2401 11.7281C16.4571 12.0734 17.2958 12.7246 17.5326 12.7246C17.6904 12.7246 18.4304 13.1291 18.4304 13.2081C18.4304 13.3067 18.1147 13.948 18.0358 14.0072C18.0062 14.0368 17.868 14.2342 17.7398 14.4512C17.6115 14.6683 17.4635 14.8853 17.424 14.9445C17.3846 14.9939 17.1478 15.3096 16.911 15.6352C16.2993 16.464 14.9278 17.7565 14.3556 18.0327C13.7833 18.3189 13.4676 18.2695 13.0828 17.8255C12.5895 17.2829 12.7178 16.4146 13.5367 14.6979C13.9708 13.7803 15.3521 11.6097 15.6185 11.4222C15.8257 11.2644 16.023 11.363 16.2401 11.7281ZM43.5996 7.74207C43.501 7.8506 43.3924 8.00846 43.353 8.0874C43.3234 8.16633 43.0964 8.54125 42.8596 8.92604C42.613 9.30096 42.4551 9.65615 42.4946 9.69562C42.534 9.73509 43.057 9.75482 43.6391 9.74495L44.7145 9.71535L45.1388 9.09377C45.3756 8.74844 45.563 8.45245 45.563 8.43272C45.563 8.41299 45.6716 8.22553 45.8097 8.0282C45.9478 7.83087 46.0268 7.63354 46.007 7.59408C45.9774 7.54474 45.4644 7.51514 44.8625 7.52501C43.9153 7.53488 43.7575 7.56448 43.5996 7.74207ZM9.98477 30.1289C9.96504 30.1881 9.93544 30.938 9.92558 31.7964L9.89598 33.3651L9.57038 33.6513C9.34346 33.8584 9.156 33.9374 8.87974 33.9374C8.31735 33.9374 8.13976 33.8584 7.8931 33.5033C7.69577 33.2073 7.67603 33.079 7.67603 31.6286V30.0796L7.27151 30.1092L6.85712 30.1388L6.87686 31.7174C6.89659 33.4638 6.92619 33.6808 7.20245 34.0262C7.5675 34.5096 7.91283 34.628 8.86987 34.628H9.75785L10.1821 34.2038C10.4288 33.9472 10.6261 33.6414 10.6656 33.4539C10.705 33.2665 10.7346 32.4475 10.7346 31.6188V30.1092L10.3794 30.0697C10.1821 30.05 10.0045 30.0697 9.98477 30.1289ZM18.6771 30.0599C18.5192 30.0895 18.164 30.2572 17.8878 30.4447C17.207 30.8887 16.911 31.4806 16.911 32.3588C16.911 33.2467 17.207 33.8288 17.9075 34.2926C18.4008 34.6182 18.4995 34.6478 19.2099 34.6576C20.2853 34.6675 20.8477 34.3912 21.3805 33.5921C21.6074 33.2369 21.637 33.1086 21.637 32.3094C21.637 31.4412 21.6271 31.4017 21.3015 30.9873C20.8082 30.3657 20.3346 30.1092 19.5947 30.05C19.2493 30.0303 18.8448 30.0303 18.6771 30.0599ZM20.2656 31.0761C20.5714 31.3622 20.8872 32.0036 20.897 32.339C20.897 32.7041 20.5221 33.4737 20.2261 33.6907C20.0682 33.8091 19.7525 33.8979 19.3973 33.9176C18.9237 33.9571 18.7659 33.9275 18.4995 33.74C18.0062 33.4046 17.8088 33.0691 17.7595 32.5067C17.7102 31.8556 17.9272 31.3524 18.4206 31.0169C18.7264 30.7999 18.8645 30.7703 19.3875 30.7999C19.8709 30.8295 20.0584 30.8887 20.2656 31.0761ZM50.7429 30.1585C50.664 30.2276 50.5752 30.3855 50.5357 30.5137C50.4765 30.7012 50.2693 31.2142 50.0029 31.8161C49.9536 31.9246 49.8253 32.2305 49.7069 32.5067C49.5885 32.7731 49.4603 33.0889 49.4109 33.1974C48.9472 34.2334 48.8189 34.5392 48.8189 34.5787C48.8189 34.6083 49.0163 34.628 49.2629 34.628C49.5984 34.628 49.7069 34.5886 49.7069 34.4702C49.7069 34.3912 49.8056 34.1446 49.9338 33.9374L50.1509 33.5427H51.1573C52.2623 33.5427 52.2623 33.5427 52.5287 34.2827C52.6274 34.5491 52.6866 34.5787 53.101 34.6083C53.3674 34.628 53.5548 34.6083 53.5351 34.559C53.4562 34.3814 53.2292 33.8683 53.1108 33.5921C52.9234 33.1579 52.7063 32.6547 52.5287 32.2404C52.2426 31.599 52.0946 31.234 51.9269 30.8295C51.8381 30.6124 51.7295 30.3657 51.6901 30.2868C51.5717 30.0796 50.9106 29.9809 50.7429 30.1585ZM51.4631 31.7372C51.5914 31.9937 51.7295 32.2897 51.7789 32.3785C51.9762 32.7337 51.7986 32.8619 51.1474 32.8323C50.664 32.8126 50.5456 32.7633 50.516 32.635C50.4765 32.4179 51.0586 31.1452 51.1672 31.2142C51.2066 31.234 51.3447 31.4708 51.4631 31.7372ZM69.4792 30.0796C69.4595 30.0993 69.4397 31.1353 69.4397 32.3785V34.628L71.1368 34.6083L72.8436 34.5787L72.8634 34.263L72.893 33.9374H71.7781C70.2587 33.9374 70.229 33.9275 70.229 33.3553C70.229 33.0987 70.2784 32.8422 70.3475 32.7731C70.4264 32.6942 70.821 32.6547 71.4821 32.6547H72.4983V32.0036L71.6597 32.043C71.117 32.0726 70.7224 32.043 70.525 31.9641C70.2488 31.8556 70.229 31.8062 70.229 31.3622C70.229 30.7801 70.2192 30.79 71.7583 30.7505L72.8338 30.7308V30.1388L71.1762 30.0895C70.2685 30.0599 69.4989 30.0599 69.4792 30.0796ZM79.9672 30.0697C79.7008 30.0895 79.4936 30.198 79.2568 30.4447C78.9411 30.7604 78.9115 30.8393 78.9115 31.3622C78.9115 31.895 78.9411 31.974 79.2075 32.2009C79.3752 32.339 79.7008 32.4969 79.9277 32.5561C80.1547 32.6153 80.4211 32.7041 80.5098 32.7534C80.6085 32.8126 80.7664 32.8521 80.865 32.8521C81.0525 32.8521 81.4768 33.2369 81.4768 33.4046C81.4768 33.4638 81.388 33.6019 81.2794 33.7203C80.9933 34.0262 80.1349 34.0262 79.6021 33.7203L79.2173 33.4934L79.0003 33.7104C78.7142 33.9966 78.803 34.1742 79.3653 34.4208C79.9573 34.6872 81.2202 34.707 81.6445 34.4603C82.0391 34.2432 82.2661 33.8091 82.2661 33.2961C82.2661 32.931 82.2069 32.8027 81.9306 32.5166C81.7037 32.2897 81.457 32.1614 81.1906 32.1121C80.9637 32.0726 80.7664 32.0036 80.7269 31.9542C80.6973 31.9049 80.569 31.8654 80.4506 31.8654C79.8883 31.8654 79.4541 31.1156 79.8883 30.8788C80.1744 30.7308 81.013 30.7604 81.24 30.9281C81.3386 31.0071 81.4866 31.0761 81.5656 31.0761C81.7333 31.0761 81.9602 30.79 81.9701 30.5828C81.9701 30.2473 80.9341 29.9809 79.9672 30.0697ZM2.24951 32.3588V34.628H5.70275V33.9374H4.55825C3.20655 33.9374 3.03882 33.8782 3.03882 33.3553C3.03882 32.7633 3.23615 32.6547 4.34119 32.6547C5.3377 32.6547 5.45609 32.6054 5.34756 32.191C5.29823 32.0233 5.20943 32.0036 4.38066 32.043C3.54201 32.0825 3.43348 32.0628 3.24602 31.8753C2.96976 31.599 2.95989 31.0268 3.22629 30.8788C3.33482 30.8295 3.93667 30.7801 4.55825 30.7801H5.70275V30.0895H2.24951V32.3588ZM12.0666 32.3588V34.6379L12.5106 34.6083L12.9546 34.5787L12.925 34.0064C12.8756 33.3059 12.994 33.1481 13.5367 33.1481C13.9313 33.1481 13.9511 33.1678 14.4345 33.888L14.9278 34.628H15.9934L15.806 34.411C15.7073 34.2926 15.579 34.1446 15.5198 34.0854C15.4705 34.0262 15.3324 33.8091 15.2238 33.6118C15.1153 33.4145 14.9969 33.2467 14.9574 33.2467C14.77 33.2467 14.9081 32.9902 15.1646 32.8323C15.6382 32.5659 15.8158 32.2009 15.8158 31.5102C15.8158 30.9972 15.7764 30.8492 15.579 30.642C15.1252 30.1585 14.8588 30.0895 13.4084 30.0895H12.0666V32.3588ZM14.7206 30.9873C14.918 31.1452 14.9772 31.2734 14.9772 31.5694C14.9772 32.191 14.5529 32.4574 13.586 32.4574C13.0532 32.4574 12.9052 32.2601 12.9052 31.5694C12.9052 30.8689 13.0039 30.79 13.8524 30.7801C14.3161 30.7801 14.5135 30.8295 14.7206 30.9873ZM22.969 30.1388C22.969 30.1684 22.9591 31.1748 22.9591 32.3785V34.5787H23.6892L23.6991 33.967C23.7089 33.6315 23.7484 33.3257 23.7879 33.2862C23.8273 33.2369 24.1825 33.1875 24.5772 33.1678C25.9388 33.0987 26.3729 32.7238 26.3729 31.6188C26.3729 30.3855 25.9289 30.0895 24.1233 30.0895C23.482 30.0895 22.969 30.1092 22.969 30.1388ZM25.327 31.0367C25.7217 31.3721 25.7414 31.8457 25.3862 32.2108C25.1692 32.4179 25.0409 32.4574 24.518 32.4574C24.1628 32.4574 23.8471 32.4081 23.778 32.339C23.7089 32.27 23.6596 31.9641 23.6596 31.6582C23.6596 30.9281 23.7977 30.7801 24.4983 30.7801C24.9225 30.7801 25.0902 30.8295 25.327 31.0367ZM27.5075 32.2601V34.4998C27.5075 34.5491 28.2672 34.5787 29.2045 34.5787H30.9016V33.9867L29.8754 33.967C29.3032 33.9472 28.7408 33.9176 28.6323 33.888C28.3758 33.8288 28.2475 33.2961 28.3955 32.9113C28.4843 32.6547 28.504 32.6547 29.4808 32.6547C30.3096 32.6547 30.4872 32.6251 30.5365 32.4969C30.5661 32.4081 30.5562 32.2601 30.497 32.1812C30.4181 32.0529 30.2306 32.0233 29.5104 32.0529C28.6717 32.0726 28.6027 32.0628 28.4547 31.8556C28.2771 31.5892 28.2475 31.2438 28.3955 30.9676C28.4942 30.7999 28.6125 30.7801 29.6781 30.7801H30.8621V30.0895H27.5075V32.2601ZM33.6247 30.198C33.6247 30.2868 33.4964 30.5927 33.1314 31.4214C33.082 31.53 32.9538 31.8358 32.8354 32.1121C32.717 32.3785 32.5887 32.6942 32.5394 32.8027C32.49 32.9113 32.3618 33.2171 32.2434 33.4934C32.1349 33.7598 31.977 34.1051 31.8981 34.2531C31.6909 34.6182 31.7007 34.628 32.1349 34.628C32.5394 34.628 32.7564 34.4208 32.8946 33.8979C32.9735 33.5723 33.161 33.523 34.266 33.5625L35.154 33.5921L35.4006 34.1051C35.6374 34.6083 35.6572 34.628 36.0715 34.628C36.2985 34.628 36.4859 34.5984 36.4859 34.5688C36.4859 34.5294 36.3873 34.2926 36.2787 34.0459C36.1603 33.7992 36.0025 33.4441 35.9236 33.2763C35.8545 33.0987 35.7262 32.8027 35.6374 32.6054C35.5585 32.4179 35.4302 32.1121 35.3414 31.9148C35.2625 31.7273 35.1342 31.4313 35.0553 31.2537C34.9764 31.0761 34.8382 30.7407 34.7495 30.5039C34.5719 30.0993 34.562 30.0895 34.0983 30.0895C33.8319 30.0895 33.6247 30.1388 33.6247 30.198ZM34.2857 31.3524C34.3449 31.3918 34.4337 31.5596 34.4732 31.7174C34.5127 31.8852 34.6113 32.1121 34.6804 32.2305C34.9369 32.6153 34.7692 32.8323 34.1969 32.8718C33.4964 32.9113 33.2399 32.6449 33.5754 32.2009C33.6543 32.1022 33.7233 31.9641 33.7233 31.895C33.7233 31.8358 33.7628 31.6681 33.822 31.53C33.9207 31.2734 34.0687 31.2142 34.2857 31.3524ZM37.4726 32.3588V34.628H38.3803L38.3507 33.2171C38.3211 31.8161 38.3211 31.7964 38.6467 31.8457C38.696 31.8556 39.0611 32.2996 39.4557 32.8225C39.8504 33.3553 40.2746 33.8979 40.4029 34.036C40.5312 34.1742 40.6594 34.3616 40.689 34.4603C40.7285 34.5984 40.8272 34.628 41.133 34.6083L41.5277 34.5787V30.1388L41.1231 30.1092L40.7285 30.0796V31.3524C40.7285 33.1086 40.6693 33.1382 39.7419 31.895C39.3373 31.3622 38.992 30.9084 38.9624 30.8788C38.9229 30.8492 38.7947 30.6617 38.6566 30.4644C38.4296 30.1191 38.3704 30.0895 37.9462 30.0895H37.4726V32.3588ZM45.0697 32.3588V34.628H45.859V34.0064C45.859 33.6513 45.9084 33.3355 45.9774 33.2665C46.0465 33.1974 46.3918 33.1481 46.8161 33.1481C47.6054 33.1481 47.9507 33.0001 48.3355 32.5067C48.6512 32.1121 48.6414 31.1156 48.3256 30.7111C47.931 30.2079 47.5264 30.0895 46.2339 30.0895H45.0697V32.3588ZM47.5264 31.0663C47.8619 31.4017 47.852 31.9246 47.4968 32.2206C47.2798 32.4179 47.1219 32.4574 46.6089 32.4574C45.8788 32.4574 45.859 32.4278 45.859 31.5793C45.859 30.8492 45.9577 30.7505 46.6977 30.7999C47.1614 30.8295 47.3489 30.8887 47.5264 31.0663ZM54.6401 30.1388C54.6401 30.1684 54.6303 31.1748 54.6303 32.3785V34.5787H55.3801L55.3505 34.0064C55.3012 33.2961 55.4196 33.1481 55.982 33.1481C56.3865 33.1481 56.7121 33.3257 56.7121 33.5526C56.7121 33.6118 56.7713 33.7104 56.8403 33.7795C56.8995 33.8584 57.0278 34.0163 57.1067 34.1347C57.1857 34.2531 57.3041 34.4208 57.3534 34.4998C57.4323 34.5984 57.6 34.628 57.9256 34.6083L58.3992 34.5787L57.896 33.888C57.6297 33.5131 57.4027 33.1678 57.4027 33.1283C57.4027 33.0889 57.6 32.8718 57.8467 32.6449C58.2808 32.2404 58.2907 32.2305 58.2907 31.599C58.2907 30.8788 58.1526 30.5927 57.6395 30.2967C57.3337 30.1191 57.1265 30.0895 55.9622 30.0895C55.2321 30.0895 54.6401 30.1092 54.6401 30.1388ZM57.2942 31.0761C57.5803 31.4214 57.5606 31.8753 57.2449 32.1713C57.0278 32.3785 56.8995 32.4081 56.2681 32.4081C55.8734 32.4081 55.5084 32.3785 55.4689 32.3292C55.4294 32.2897 55.3702 31.9937 55.3505 31.6878C55.2913 30.8689 55.4294 30.7505 56.3766 30.7999C56.9883 30.8295 57.1166 30.8689 57.2942 31.0761ZM59.2477 30.1585C59.2181 30.2079 59.2083 30.346 59.2181 30.4841C59.228 30.7111 59.2675 30.7308 59.82 30.7801C60.1456 30.8097 60.4712 30.8689 60.5402 30.9084C60.629 30.9676 60.6586 31.4609 60.6586 32.8126V34.628H61.5466V32.7633C61.5466 30.642 61.4874 30.7801 62.4445 30.7801H63.0266V30.0895H61.1618C60.1258 30.0895 59.2675 30.1191 59.2477 30.1585ZM64.0132 32.3588V34.628H64.8025V33.3553C64.8025 32.0332 64.842 31.7668 65.0393 31.7668C65.0985 31.7766 65.6313 32.4179 66.2233 33.1974C67.279 34.6083 67.2987 34.628 67.6736 34.628H68.0584V30.0895H67.2691V31.4708C67.2691 32.5166 67.2395 32.8521 67.1507 32.8521C66.9633 32.8422 66.7561 32.6547 66.4601 32.2108C66.3121 31.9937 66.0358 31.6385 65.8385 31.4214C65.651 31.2044 65.4932 30.9972 65.4932 30.9676C65.4932 30.9281 65.3649 30.7505 65.1972 30.5729C65.0393 30.3855 64.9012 30.2079 64.9012 30.1585C64.9012 30.1191 64.7039 30.0895 64.4572 30.0895H64.0132V32.3588ZM74.077 32.3588V34.628H74.8663V34.0459C74.8663 33.2171 74.9057 33.1481 75.4089 33.1481C75.7838 33.1481 75.8726 33.1875 76.1193 33.5131C76.2772 33.7203 76.5041 34.0459 76.6225 34.2531C76.8198 34.5688 76.8987 34.6083 77.2934 34.6478C77.5401 34.6675 77.767 34.6478 77.7867 34.6083C77.8163 34.5688 77.6289 34.263 77.3822 33.9176C77.1355 33.5822 76.9382 33.2369 76.9382 33.1382C76.9382 33.0494 77.0467 32.8915 77.1849 32.7929C77.8262 32.3193 78.0136 31.3918 77.6091 30.7801C77.2046 30.1881 76.9481 30.1092 75.4385 30.0993L74.077 30.0895V32.3588ZM76.4844 30.8788C76.6323 30.9281 76.8099 31.1255 76.8987 31.3129C77.0566 31.6385 77.0566 31.6582 76.8395 31.9641C76.7211 32.1318 76.5139 32.3193 76.3758 32.3686C75.991 32.5166 75.1918 32.4771 75.0241 32.2996C74.8367 32.1121 74.8071 31.0761 74.9847 30.8985C75.1228 30.7604 76.1292 30.7407 76.4844 30.8788Z" fill="#CF1A1A"/>
</g>
<defs>
<clipPath id="clip0">
<rect width="88.2056" height="35" fill="white"/>
</clipPath>
</defs>
</svg>
