<svg width="119" height="30" viewBox="0 0 119 30" fill="none" xmlns="http://www.w3.org/2000/svg">
<g style="mix-blend-mode:luminosity">
<path d="M0 6.29576C0 6.29576 2.95384 18.9618 3.42527 21.0177C3.9755 23.4173 4.96693 24.3005 7.82539 23.7049L9.66985 15.852C10.1373 13.9014 10.4509 12.5108 10.7514 10.5265H10.8042C11.0154 12.5302 11.316 13.9072 11.7007 15.8588C11.7007 15.8588 12.4516 19.4238 12.8361 21.2963C13.2216 23.1681 14.2944 24.3478 17.0943 23.7055L21.4892 6.29709H17.9408L16.4405 13.8236C16.0371 16.0144 15.671 17.7263 15.3888 19.7305H15.3387C15.0822 17.7463 14.756 16.1022 14.3459 13.9677L12.7836 6.29709H9.08659L7.41551 13.7744C6.94208 16.0466 6.49928 17.8814 6.2177 19.8177H6.1667C5.87834 17.9942 5.49426 15.6882 5.07835 13.4887C5.07835 13.4887 4.08553 8.14056 3.73719 6.29709L0.000345488 6.29759L0 6.29576ZM33.826 6.29576V23.7042H37.2043V20.0076V6.29492H33.826V6.29576ZM81.4062 6.29576V19.1383C81.4062 20.9089 81.7247 22.1495 82.406 22.9073C83.0012 23.5702 83.9816 23.9994 85.1563 23.9994C86.1552 23.9994 87.1379 23.8012 87.601 23.6206L87.5575 20.858C87.2129 20.9468 86.8164 21.0178 86.2742 21.0178C85.1234 21.0178 84.7374 20.2465 84.7374 18.6567V13.7432H87.6796V10.4124H84.7374V6.2958H81.4061L81.4062 6.29576ZM26.2762 10.3314C24.1767 10.3314 22.5101 10.9483 21.6016 11.4976L22.2664 13.8799C23.0979 13.3314 24.4217 12.8773 25.6751 12.8773C27.7505 12.8718 28.0897 14.1053 28.0897 14.8964V15.0835C23.5677 15.0764 20.7113 16.7139 20.7113 20.0517C20.7113 22.0896 22.1653 23.9993 24.6938 23.9993C26.2502 23.9993 27.5519 23.3498 28.3321 22.309H28.4086C28.4086 22.309 28.9252 24.5693 31.7713 23.7049C31.6217 22.7642 31.5732 21.7612 31.5732 20.5531V15.9025C31.5732 12.9385 30.3638 10.3315 26.2762 10.3315L26.2762 10.3314ZM46.4849 10.3314C44.3709 10.3314 43.4208 11.4525 42.8448 12.4036H42.7948V10.6266H39.5707V23.705H42.967V16.0351C42.967 15.6755 43.0063 15.2953 43.1262 14.9645C43.4076 14.1923 44.0942 13.289 45.1904 13.289C46.5608 13.289 47.202 14.5014 47.202 16.251V23.7049H50.5947V15.9422C50.5947 15.5989 50.6396 15.1855 50.7362 14.882C51.0151 14.0036 51.7553 13.2889 52.7742 13.2889C54.1635 13.2889 54.8303 14.4801 54.8303 16.539V23.7049H58.2253V16.0022C58.2253 11.9399 56.2541 10.3315 54.029 10.3315C53.0435 10.3315 52.2657 10.59 51.5625 11.0418C50.9713 11.4214 50.4422 11.9607 49.9797 12.6708H49.9296C49.3915 11.2613 48.1289 10.3315 46.4843 10.3315L46.4849 10.3314ZM65.1349 10.3314C63.0358 10.3314 61.3695 10.9483 60.4603 11.4976L61.126 13.8799C61.9566 13.3314 63.2813 12.8773 64.5341 12.8773C66.608 12.8718 66.9481 14.1053 66.9481 14.8964V15.0835C62.4266 15.0764 59.5699 16.7139 59.5699 20.0517C59.5699 22.0896 61.0247 23.9993 63.5545 23.9993C65.1097 23.9993 66.4118 23.3498 67.1905 22.309H67.2673C67.2673 22.309 67.7839 24.5693 70.6304 23.7049C70.4806 22.7642 70.4326 21.7612 70.4326 20.5531V15.9025C70.4326 12.9385 69.2228 10.3315 65.1348 10.3315L65.1349 10.3314ZM79.2387 10.3314C77.9382 10.3314 76.4586 11.2099 75.8375 13.093H75.7427V10.6265H72.6853V23.7049H76.1706V17.0079C76.1706 16.6466 76.1916 16.3316 76.2462 16.0428C76.504 14.6399 77.5294 13.7431 79.001 13.7431C79.405 13.7431 79.6942 13.7889 80.007 13.8362V10.4123C79.7447 10.3568 79.5653 10.3313 79.2389 10.3313L79.2387 10.3314ZM28.1988 17.4011V19.0326C28.1988 19.274 28.1788 19.523 28.1149 19.7407C27.8534 20.6468 26.9564 21.4126 25.835 21.4126C24.9001 21.4126 24.1574 20.8573 24.1574 19.6827C24.1574 17.8861 26.0474 17.3894 28.1989 17.4011H28.1988ZM67.0575 17.4011V19.0326C67.0575 19.274 67.037 19.523 66.9735 19.7407C66.7121 20.6468 65.8153 21.4126 64.6939 21.4126C63.7588 21.4126 63.016 20.8573 63.016 19.6827C63.016 17.8861 64.906 17.3894 67.0576 17.4011H67.0575Z" fill="#007DC6"/>
<path d="M105.946 0C104.855 0 103.988 0.63734 103.988 1.41323L104.651 9.26161C104.724 9.73446 105.277 10.0992 105.946 10.0992C106.617 10.0983 107.168 9.73386 107.243 9.26161L107.909 1.41323C107.909 0.637407 107.039 6.6643e-05 105.947 6.6643e-05L105.946 0ZM95.1518 6.2956C94.5856 6.30965 93.9424 6.75825 93.5333 7.50057C92.9861 8.48903 93.083 9.59366 93.7233 9.98118L100.549 13.3075C100.975 13.4735 101.554 13.1566 101.89 12.5516C101.89 12.5515 101.89 12.5513 101.89 12.5513C102.227 11.9433 102.201 11.2597 101.846 10.9564L95.6812 6.43171C95.5211 6.33467 95.341 6.29101 95.1523 6.29569L95.1518 6.2956ZM116.74 6.2956C116.551 6.29091 116.371 6.33458 116.211 6.43161L110.046 10.9563C109.693 11.2596 109.667 11.9432 110.002 12.5512L110.003 12.5515C110.339 13.1565 110.916 13.4734 111.343 13.3074L118.172 9.98125C118.814 9.59372 118.907 8.48915 118.363 7.50064C117.952 6.7583 117.308 6.30973 116.742 6.29566L116.74 6.2956ZM100.804 16.6504C100.716 16.6492 100.63 16.6634 100.55 16.695L93.7242 20.0173C93.084 20.4065 92.987 21.5116 93.5342 22.5011C94.0797 23.4876 95.0413 23.9566 95.6817 23.5697L101.847 19.0485C102.202 18.7416 102.228 18.0582 101.891 17.4508L101.894 17.4521C101.621 16.9574 101.187 16.6558 100.804 16.6503L100.804 16.6504ZM111.091 16.6504C110.708 16.6559 110.275 16.9575 110.002 17.4522L110.004 17.4509C109.669 18.0583 109.695 18.7417 110.047 19.0486L116.213 23.5698C116.852 23.9567 117.815 23.4877 118.363 22.5012C118.906 21.5117 118.814 20.4066 118.171 20.0174L111.344 16.6951C111.264 16.6635 111.179 16.6493 111.091 16.6505L111.091 16.6504ZM105.945 19.9031C105.277 19.9039 104.725 20.2671 104.652 20.7387L103.989 28.5868C103.989 29.364 104.856 30 105.947 30C107.039 30 107.908 29.3639 107.908 28.5868L107.244 20.7387C107.169 20.2671 106.618 19.904 105.947 19.9031H105.945H105.945Z" fill="#FFC220"/>
</g>
</svg>
