<svg width="80" height="35" viewBox="0 0 80 35" fill="none" xmlns="http://www.w3.org/2000/svg">
<g style="mix-blend-mode:luminosity">
<path d="M75.579 33.9643L63.776 0.0223978L63.7679 0H63.535L61.1044 6.97498L56.6796 19.673L56.6693 19.6629C55.1357 18.2496 52.9721 17.366 50.2472 17.037L49.4161 16.9474L50.2406 16.8369C54.7342 15.9936 57.7548 13.0293 57.7548 9.45804C57.7548 4.56065 53.3448 1.14229 47.0277 1.14229H33.8841V1.39021H37.7034V26.6958L28.4278 0.0223978L28.4197 0H28.1868L25.7562 6.97498L16.3816 33.877L16.3239 33.884C16.1637 33.9046 16.0052 33.921 15.8484 33.9334C15.6126 33.9527 15.3782 33.9643 15.143 33.9643H5.67077L23.6762 1.39021L23.81 1.14538H1.78871V11.2221H2.02237C2.06378 6.31386 4.80045 1.39021 10.8469 1.39021H18.1414L0 34.2084H24.44V24.5541H24.2063C24.1745 28.8321 21.8527 32.8954 16.8038 33.8129L16.6433 33.8415L20.4884 22.8025H31.2599L35.1412 33.9643H31.3124V34.2084H46.34V33.9643H42.4949V17.1273H46.9316C51.4466 17.1273 54.0361 19.2343 54.0361 22.906V25.8926C54.0361 26.2216 54.0576 26.7028 54.0812 27.1052V27.1198L51.6965 33.9627H48.5813V34.2068H55.0299V33.9627H51.9479L54.1197 27.7315C54.1241 27.7918 54.1263 27.8281 54.1263 27.8281L54.1862 28.3896L54.2439 28.7611C54.6062 31.0588 55.4477 32.7479 56.744 33.7813L56.9303 33.9226C57.9152 34.6378 59.139 35 60.5698 35C62.465 35 63.7287 34.5065 64.7721 33.3449L64.6353 33.2105C63.674 34.1373 62.8673 34.5127 61.8565 34.5127C60.1343 34.5127 59.2329 32.3308 59.2329 30.1791V25.9946C59.2421 24.9562 59.0864 23.9235 58.7723 22.9384L58.7294 22.8087V22.804H66.6081L70.4894 33.9658H66.6606V34.2099H79.6652V33.9658L75.579 33.9643ZM20.5742 22.5584L25.8804 7.3318L31.1748 22.5584H20.5742ZM42.4972 16.8825V1.39021H45.8838C50.4077 1.39021 52.7961 4.1992 52.7961 9.51056C52.7961 15.1594 51.4252 16.8825 46.9316 16.8825H42.4972ZM58.6377 22.5584L58.6147 22.4982C58.2646 21.6075 57.7549 20.7949 57.1129 20.1039L56.8911 19.8722L56.8674 19.8491L61.2257 7.3318L66.5201 22.5584H58.6377Z" fill="black"/>
</g>
</svg>
